<?xml version="1.0" encoding="UTF-8" standalone="no"?>
<!-- Created with Inkscape (http://www.inkscape.org/) -->

<svg
   version="1.1"
   id="svg2"
   xml:space="preserve"
   width="14"
   height="27.999998"
   viewBox="0 0 14 27.999998"
   xmlns="http://www.w3.org/2000/svg"
   xmlns:svg="http://www.w3.org/2000/svg"><defs
     id="defs6"><clipPath
       clipPathUnits="userSpaceOnUse"
       id="clipPath1249"><rect
         style="fill:#c1efff;stroke-width:7.5"
         id="rect1251"
         width="105"
         height="210"
         x="120"
         y="-210"
         transform="scale(1,-1)" /></clipPath></defs><g
     id="g8"
     transform="matrix(1.3333333,0,0,-1.3333333,-16,27.999999)"><g
       id="g10"
       transform="scale(0.1)"
       clip-path="url(#clipPath1249)"><path
         style="fill:#000000;fill-opacity:1;stroke-width:1.4955"
         d="M 0.2126388,20.974911 29.98208,20.904289 29.9112,13.347671 2.2043011e-8,13.983274 Z"
         id="path2877"
         transform="scale(10)" /><path
         d="M 300,0 H 0 V 210 H 300 V 0"
         style="fill:#c1efff;fill-opacity:1;fill-rule:nonzero;stroke:none"
         id="path12" /><path
         d="m 193.074,99.6289 c 9.985,-6.1523 21.606,-10.1875 42.922,-0.4687 13.328,6.0698 24.27,11.1488 33.75,14.8318 -29.016,1.922 -53.262,-11.414 -76.672,-14.3631"
         style="fill:#5cabe2;fill-opacity:1;fill-rule:nonzero;stroke:none"
         id="path14" /><path
         d="m 142.523,107.996 c -46.7339,-20.8397 -70.7378,31.586 -91.5738,2.531 -1.1719,-1.636 -2.5469,-3.105 -4.0039,-4.496 6.6406,-1.453 13.6328,-3.797 21.0508,-7.5076 64.4259,-32.207 63.1599,8.8436 107.3749,1.2618 5.891,-1.0079 11.777,-0.9063 17.703,-0.1563 -13.367,8.2421 -23.789,20.3011 -50.551,8.3671"
         style="fill:#5cabe2;fill-opacity:1;fill-rule:nonzero;stroke:none"
         id="path16" /><path
         d="m 269.746,113.992 c 9.524,-0.625 19.563,-2.949 30.254,-7.777 v 13.863 c -8.828,0.863 -18.379,-1.465 -30.254,-6.086"
         style="fill:#5cabe2;fill-opacity:1;fill-rule:nonzero;stroke:none"
         id="path18" /><path
         d="m 243.574,77.6875 c -21.465,14.5195 -26.523,-13.8984 -51.152,-0.6367 -7.559,4.0703 -13.801,4.0234 -19.395,2.3125 28.301,-9.8711 51.453,-27.3125 76.243,-9.8906 18.738,13.1836 36.746,13.1328 50.73,9.3554 v 6.1055 C 255.422,100.707 263.984,63.8867 243.574,77.6875"
         style="fill:#2a4a93;fill-opacity:1;fill-rule:nonzero;stroke:none"
         id="path20" /><path
         d="m 62.9492,145.895 c -7.5781,-0.793 -14.3515,-1.918 -20.7226,-3.184 2.625,-1.164 5.2617,-2.336 8.0898,-3.766 44.5508,-22.515 56.0786,-9.074 83.5626,-3.468 -17.723,7.769 -37.254,13.945 -70.9298,10.418"
         style="fill:#97dded;fill-opacity:1;fill-rule:nonzero;stroke:none"
         id="path22" /><path
         d="M 2.85547,73.0586 C 19.5391,74.1875 37.3008,70.2344 56.793,69.1602 55.6797,69.707 54.6133,70.1289 53.4727,70.7305 34.2109,81.0625 16.5625,78.8008 2.85547,73.0586"
         style="fill:#395da5;fill-opacity:1;fill-rule:nonzero;stroke:none"
         id="path24" /><path
         d="M 111.578,78.3203 C 91.7266,69.5117 73.6211,68.2422 56.793,69.1602 c 41.289,-19.9493 61.613,10.7812 80.684,0.9453 13.574,-7.0078 22.906,5.4023 35.55,9.2578 -17.851,6.2226 -37.75,9.4531 -61.449,-1.043"
         style="fill:#2a4a93;fill-opacity:1;fill-rule:nonzero;stroke:none"
         id="path26" /><path
         d="M 249.27,69.4727 C 224.48,52.0508 201.328,69.4922 173.027,79.3633 160.383,75.5078 151.051,63.0977 137.477,70.1055 118.406,79.9414 98.082,49.2109 56.793,69.1602 37.3008,70.2344 19.5391,74.1875 2.85547,73.0586 1.87109,72.6445 0.949219,72.1875 0,71.7383 V 59.9102 C 17.9063,65.9375 41.9336,68.9531 67.3672,57.4727 119.16,34.1016 144.418,84.0039 191.16,60.6367 233.43,39.4922 268.457,81.7188 300,71.7969 v 7.0312 c -13.984,3.7774 -31.992,3.8282 -50.73,-9.3554"
         style="fill:#243165;fill-opacity:1;fill-rule:nonzero;stroke:none"
         id="path28" /><path
         d="m 0,72.7656 v -1.0273 c 0.949219,0.4492 1.87109,0.9062 2.85547,1.3203 C 1.89844,72.9961 0.953125,72.8594 0,72.7656"
         style="fill:#395da5;fill-opacity:1;fill-rule:nonzero;stroke:none"
         id="path30" /><path
         d="m 53.4727,70.7305 c 1.1406,-0.6016 2.207,-1.0235 3.3203,-1.5703 16.8281,-0.918 34.9336,0.3515 54.785,9.1601 23.699,10.4961 43.598,7.2656 61.449,1.043 5.594,1.7109 11.836,1.7578 19.395,-2.3125 24.629,-13.2617 29.687,15.1562 51.152,0.6367 20.41,-13.8008 11.848,23.0195 56.426,7.2461 v 21.2814 c -10.691,4.828 -20.73,7.152 -30.254,7.777 -9.48,-3.683 -20.422,-8.762 -33.75,-14.8318 -21.316,-9.7188 -32.937,-5.6836 -42.922,0.4687 -5.926,-0.75 -11.812,-0.8516 -17.703,0.1563 C 131.156,107.367 132.422,66.3164 67.9961,98.5234 60.5781,102.234 53.5859,104.578 46.9453,106.031 35.8633,95.4688 17.1914,91.6406 0,90.6133 V 72.7656 c 0.953125,0.0938 1.89844,0.2305 2.85547,0.293 13.70703,5.7422 31.35543,8.0039 50.61723,-2.3281"
         style="fill:#3f73bd;fill-opacity:1;fill-rule:nonzero;stroke:none"
         id="path32" /><path
         d="M 190.891,60.9961 C 144.156,84.3633 118.523,35.0508 66.7383,58.418 41.3047,69.9023 17.9063,65.9375 0,59.9102 V 0 H 300 V 71.7969 C 268.457,81.7188 233.164,39.8633 190.891,60.9961"
         style="fill:#1c234a;fill-opacity:1;fill-rule:nonzero;stroke:none"
         id="path34" /><path
         d="M 46.9453,106.031 C 28.0117,110.164 12.2813,106.191 0,99.4336 v -8.8203 c 17.1914,1.0273 35.8633,4.8555 46.9453,15.4177"
         style="fill:#69b2e3;fill-opacity:1;fill-rule:nonzero;stroke:none"
         id="path36" /><path
         d="m 0,151.625 v -23.621 c 10.0117,5.703 23.7891,11.039 42.2266,14.707 C 23.6445,150.914 9.92578,152.75 0,151.625"
         style="fill:#a0e0eb;fill-opacity:1;fill-rule:nonzero;stroke:none"
         id="path38" /><path
         d="m 46.9453,106.031 c 1.457,1.391 2.832,2.86 4.0039,4.496 20.836,29.055 44.8399,-23.3707 91.5738,-2.531 26.762,11.934 37.184,-0.125 50.551,-8.3671 23.41,2.9491 47.656,16.2851 76.672,14.3631 11.875,4.621 21.426,6.949 30.254,6.086 v 11.465 c -13.848,0.957 -20.527,-13.063 -76.633,-16.598 -45.711,-2.875 -66.004,10.231 -89.488,20.532 -27.484,-5.606 -39.0118,-19.047 -83.5626,3.468 -2.8281,1.43 -5.4648,2.602 -8.0898,3.766 C 23.7891,139.043 10.0117,133.707 0,128.004 V 99.4336 c 12.2813,6.7574 28.0117,10.7304 46.9453,6.5974"
         style="fill:#76d2ef;fill-opacity:1;fill-rule:nonzero;stroke:none"
         id="path40" /><path
         d="m 166.523,137.051 c -13.57,1.222 -23.894,0.215 -32.644,-1.574 23.484,-10.301 43.777,-23.407 89.488,-20.532 56.106,3.535 62.785,17.555 76.633,16.598 v 11.594 c -78.586,38.972 -81.262,-10.778 -133.477,-6.086"
         style="fill:#97dded;fill-opacity:1;fill-rule:nonzero;stroke:none"
         id="path42" /></g></g></svg>
