<?xml version="1.0" encoding="UTF-8" standalone="no"?>
<!-- Created with Inkscape (http://www.inkscape.org/) -->

<svg
   version="1.1"
   id="svg2"
   xml:space="preserve"
   width="718.68042"
   height="1645.7959"
   viewBox="0 0 718.68042 1645.7959"
   sodipodi:docname="squid-logo.svg"
   inkscape:export-filename="squid-logo-black.svg"
   inkscape:export-xdpi="96"
   inkscape:export-ydpi="96"
   xmlns:inkscape="http://www.inkscape.org/namespaces/inkscape"
   xmlns:sodipodi="http://sodipodi.sourceforge.net/DTD/sodipodi-0.dtd"
   xmlns="http://www.w3.org/2000/svg"
   xmlns:svg="http://www.w3.org/2000/svg"><defs
     id="defs6" /><sodipodi:namedview
     id="namedview4"
     pagecolor="#ffffff"
     bordercolor="#666666"
     borderopacity="1.0"
     inkscape:pageshadow="2"
     inkscape:pageopacity="0.0"
     inkscape:pagecheckerboard="0"
     inkscape:showpageshadow="0"
     inkscape:deskcolor="#d1d1d1"
     showgrid="false" /><g
     id="g8"
     inkscape:groupmode="layer"
     inkscape:label="ink_ext_XXXXXX"
     transform="matrix(1.3333333,0,0,-1.3333333,-3444.0798,2592.6133)"><g
       id="g10"
       transform="scale(0.1)"><path
         d="m 28516.4,19444.6 c -69.2,-21.5 -139.7,-49.8 -211.9,-89 70.8,-13.7 141.1,-30.1 212,-55 143.4,-50.4 289.7,-135.3 449,-301.3 285.8,-297.9 613.7,-858 784,-1594.5 170.7,-738 183.2,-1651.4 195.5,-2575.1 0.4,-37.5 31,-67.5 68.4,-67.5 0.3,0 0.5,0 0.9,0 37.7,0.5 67.9,31.6 67.4,69.3 -12.2,919.2 -24.2,1848.8 -198.9,2604.1 -175,756.7 -513.2,1340.2 -818.6,1658.4 -116.4,121.3 -228,203.9 -335.7,262.1 h -0.1 c -72.2,39 -142.8,67.1 -212,88.5 z"
         style="fill:#000000;fill-opacity:1;fill-rule:nonzero;stroke:none"
         id="path44" /><path
         d="m 28516.4,19444.6 c -69.2,-21.5 -139.7,-49.8 -211.9,-89 -107.7,-58.4 -219,-141.2 -335.2,-262.7 -304.7,-318.9 -641.8,-903 -815.2,-1660.1 -173.1,-755.6 -183.2,-1685.3 -193.5,-2604.5 -0.4,-37.7 29.8,-68.7 67.6,-69.1 0.3,0 0.6,-0.1 0.8,-0.1 37.4,0.1 67.9,30.2 68.3,67.7 10.4,923.7 21,1837.1 190.1,2575.4 168.8,736.9 495.6,1297.7 780.8,1596.2 159,166.3 305.1,251.5 448.3,302.2 71,25 141.2,41.7 211.9,55.5 -72.2,39 -142.8,67.1 -212,88.5 z"
         style="fill:#000000;fill-opacity:1;fill-rule:nonzero;stroke:none"
         id="path46" /><path
         d="m 29770.2,18585.9 c 631.4,-430.5 1207.4,-830.1 1267.5,-1129.1 54.4,-270.4 -345.9,-493.6 -857.1,-759.6 -33.6,-17.4 -46.6,-58.7 -29.2,-92.2 17.5,-33.6 58.8,-46.6 92.3,-29.1 v -0.1 c 448.6,233.5 1008.2,509.7 928.1,908 -74.3,369.5 -727.1,807.8 -1324.5,1215.1 -31.2,21.3 -73.7,13.3 -95,-18 -21.3,-31.2 -13.3,-73.7 17.9,-95 z"
         style="fill:#000000;fill-opacity:1;fill-rule:nonzero;stroke:none"
         id="path48" /><path
         d="m 27264.3,18583.3 c -630.5,-431.8 -1205.6,-832.6 -1265.2,-1131.7 -53.8,-270.5 347,-492.9 858.8,-757.8 33.5,-17.4 46.7,-58.7 29.3,-92.2 -17.4,-33.5 -58.6,-46.7 -92.2,-29.3 -449.1,232.5 -1009.3,507.5 -930,906 v -0.1 c 73.5,369.8 725.4,809.4 1322,1218 31.2,21.3 73.7,13.4 95.1,-17.8 21.3,-31.2 13.4,-73.7 -17.8,-95.1 z"
         style="fill:#000000;fill-opacity:1;fill-rule:nonzero;stroke:none"
         id="path50" /><path
         d="m 29546.4,12428 v 0 c -61,-779.3 -126.3,-1588.4 79,-2071.2 v 0 c 175.3,-412.42 543.4,-587.5 860.2,-587.15 65.5,0.04 129.1,7.58 188.9,22.23 v -0.04 c 349.1,85.54 547.1,408.86 546.2,655.76 -0.9,257.9 -213.2,421 -393.8,439.3 -12.2,1.3 -24.4,1.9 -36.3,1.9 v -0.1 c -169.5,-0.1 -306,-123.2 -416.5,-219.3 -28.5,-24.8 -31.6,-68 -6.8,-96.5 24.8,-28.5 68,-31.5 96.5,-6.7 122.3,106.3 218.5,185.6 326.9,185.7 7.4,0 14.8,-0.3 22.4,-1.1 123.5,-12.5 270.2,-127.7 270.8,-303.7 0.7,-186.8 -157.2,-452.61 -442,-522.37 -48.5,-11.92 -101.3,-18.25 -156.4,-18.28 v -0.04 c -268.2,-0.24 -582.7,147.59 -734.2,503.89 -188.9,444.2 -130.9,1210.8 -68.6,2007 3,37.7 -25.2,70.6 -62.8,73.6 -37.7,2.9 -70.6,-25.2 -73.5,-62.9 z"
         style="fill:#000000;fill-opacity:1;fill-rule:nonzero;stroke:none"
         id="path52" /><path
         d="m 27500.9,12425.9 v 0 c 62.6,-779.2 129.5,-1588.1 -74.8,-2071.4 v 0 c -174.5,-412.74 -542.2,-588.56 -859,-588.91 -65.4,-0.04 -129.1,7.34 -188.9,21.83 -349.3,84.81 -548,407.78 -547.6,654.68 0.4,257.8 212.4,421.3 392.9,440 12.3,1.3 24.4,2 36.4,2 169.4,0.2 306.2,-122.7 416.9,-218.5 28.6,-24.7 31.7,-67.9 7,-96.5 -24.8,-28.5 -68,-31.6 -96.5,-6.9 -122.5,106.1 -218.9,185.2 -327.3,185.1 -7.3,0 -14.8,-0.4 -22.4,-1.2 -123.5,-12.8 -269.9,-128.3 -270.2,-304.2 -0.3,-186.9 158.2,-452.37 443.1,-521.55 48.6,-11.8 101.3,-18.01 156.5,-17.97 268.2,0.28 582.4,148.82 733.1,505.42 188,444.6 128.4,1211 64.4,2007.1 -3,37.7 25.1,70.7 62.7,73.7 37.7,3 70.7,-25 73.7,-62.7 z"
         style="fill:#000000;fill-opacity:1;fill-rule:nonzero;stroke:none"
         id="path54" /><path
         d="m 28944.3,12422.2 c -3.6,-2024.8 -8.9,-4081.65 339.3,-4869.11 v -0.04 c 140.9,-318.79 347.1,-449.42 568.7,-449.18 327.4,0.35 645.1,287.26 765.8,503.51 169.4,303.6 -14.5,502.19 -195.8,603.4 -58.2,32.42 -118.3,56.92 -171.3,74.45 -87.1,28.87 -159.7,40.63 -223.8,40.59 -98.5,-0.12 -170.6,-28.52 -232.4,-52.38 -35.2,-13.64 -52.7,-53.24 -39.1,-88.48 13.7,-35.23 53.3,-52.73 88.5,-39.1 61.5,23.79 112.6,43.09 183.1,43.16 46.8,0.04 104.7,-8.43 180.7,-33.63 46.7,-15.47 98.6,-36.72 147.6,-64.06 153.9,-85.9 257.3,-212.5 143,-417.27 -107.5,-192.65 -387.6,-433.12 -646.4,-433.4 -154,-0.15 -318.6,85 -443.5,367.7 -333,753.12 -331.2,2767.24 -327.6,4813.54 0,37.8 -30.5,68.5 -68.3,68.5 -37.8,0.1 -68.5,-30.5 -68.5,-68.2 z"
         style="fill:#000000;fill-opacity:1;fill-rule:nonzero;stroke:none"
         id="path56" /><path
         d="m 28103,12421.3 c 7.7,-2024.7 17.2,-4081.57 -329.2,-4869.78 -140.3,-319.1 -346.3,-450.15 -567.9,-450.39 -327.3,-0.31 -645.6,285.94 -766.8,501.96 -170.1,303.24 13.5,502.22 194.6,603.79 58.1,32.57 118.1,57.14 171.1,74.84 v -0.04 c 87.1,29.06 159.6,40.98 223.7,41.05 v -0.03 c 98.5,0.11 170.7,-28.13 232.5,-51.88 35.3,-13.55 52.8,-53.16 39.3,-88.4 -13.6,-35.27 -53.2,-52.85 -88.4,-39.3 -61.6,23.72 -112.6,42.9 -183.3,42.82 -46.6,-0.04 -104.5,-8.67 -180.5,-33.99 v -0.04 c -46.7,-15.54 -98.6,-36.91 -147.5,-64.33 -153.7,-86.21 -256.9,-213.05 -142.2,-417.58 107.9,-192.42 388.6,-432.34 647.4,-432.07 154,0.16 318.3,85.66 442.7,368.63 331.4,753.79 325.5,2767.94 317.7,4814.24 -0.1,37.8 30.4,68.5 68.1,68.6 37.8,0.2 68.6,-30.3 68.7,-68.1 z"
         style="fill:#000000;fill-opacity:1;fill-rule:nonzero;stroke:none"
         id="path58" /><path
         d="m 28101.8,13624.9 c 0.3,-370.2 -299.5,-670.6 -669.6,-671 -370.2,-0.4 -670.6,299.4 -671,669.6 -0.4,370.2 299.4,670.6 669.6,671 370.1,0.3 670.6,-299.4 671,-669.6 m -136.8,-0.2 c -0.3,294.7 -239.4,533.3 -534.1,533 -294.6,-0.3 -533.2,-239.4 -532.9,-534.1 0.3,-294.6 239.4,-533.2 534,-532.9 294.6,0.3 533.3,239.4 533,534 z"
         style="fill:#000000;fill-opacity:1;fill-rule:nonzero;stroke:none"
         id="path60" /><path
         d="m 30308.7,13627.2 c 0.4,-370.3 -299.4,-670.6 -669.6,-671 -370.2,-0.4 -670.6,299.4 -671,669.6 -0.4,370.2 299.4,670.6 669.6,671 370.2,0.4 670.6,-299.5 671,-669.6 m -136.8,-0.2 c -0.3,294.6 -239.4,533.3 -534,533 -294.7,-0.3 -533.3,-239.4 -533,-534.1 0.3,-294.6 239.4,-533.2 534,-532.9 294.7,0.3 533.3,239.4 533,534 z"
         style="fill:#000000;fill-opacity:1;fill-rule:nonzero;stroke:none"
         id="path62" /><path
         d="m 29362,13665 0.6,-31.5 c 6.9,-63.7 33.7,-115.6 80.4,-155.8 47,-40.3 103.8,-58.4 170.3,-54.5 63.7,6.9 115.6,33.7 155.8,80.4 12.9,15 23.8,31.6 32.5,49.8 l 11.3,28 c 6.4,19.3 10.2,39.7 11.3,61 1.5,65.6 -18.4,121.1 -59.7,166.7 -41.4,45.6 -94.7,70.8 -160.1,75.7 -65.5,1.5 -121.1,-18.4 -166.7,-59.7 -45.6,-41.4 -70.8,-94.7 -75.7,-160.1"
         style="fill:#000000;fill-opacity:1;fill-rule:nonzero;stroke:none"
         id="path64" /><path
         d="m 27682.7,13663.2 -0.5,-31.4 c -6.8,-63.7 -33.5,-115.7 -80.1,-156 -46.9,-40.4 -103.7,-58.6 -170.2,-54.9 -63.7,6.8 -115.7,33.5 -156,80.1 -12.9,15.1 -23.8,31.6 -32.6,49.7 l -11.3,28 c -6.5,19.4 -10.3,39.7 -11.4,61 -1.7,65.6 18.1,121.2 59.3,166.9 41.3,45.6 94.6,70.9 159.9,75.9 65.6,1.7 121.2,-18.1 166.8,-59.3 45.7,-41.3 71.1,-94.6 76.1,-160"
         style="fill:#000000;fill-opacity:1;fill-rule:nonzero;stroke:none"
         id="path66" /></g></g></svg>
