<?xml version="1.0" encoding="UTF-8" standalone="no"?>
<!-- Created with Inkscape (http://www.inkscape.org/) -->

<svg
   version="1.1"
   id="svg2"
   xml:space="preserve"
   width="718.68713"
   height="1645.7987"
   viewBox="0 0 718.68713 1645.7987"
   sodipodi:docname="squid-logo.svg"
   inkscape:export-filename="squid-logo-white.svg"
   inkscape:export-xdpi="96"
   inkscape:export-ydpi="96"
   xmlns:inkscape="http://www.inkscape.org/namespaces/inkscape"
   xmlns:sodipodi="http://sodipodi.sourceforge.net/DTD/sodipodi-0.dtd"
   xmlns="http://www.w3.org/2000/svg"
   xmlns:svg="http://www.w3.org/2000/svg"><defs
     id="defs6" /><sodipodi:namedview
     id="namedview4"
     pagecolor="#ffffff"
     bordercolor="#666666"
     borderopacity="1.0"
     inkscape:pageshadow="2"
     inkscape:pageopacity="0.0"
     inkscape:pagecheckerboard="0"
     inkscape:showpageshadow="0"
     inkscape:deskcolor="#d1d1d1"
     showgrid="false" /><g
     id="g8"
     inkscape:groupmode="layer"
     inkscape:label="ink_ext_XXXXXX"
     transform="matrix(1.3333333,0,0,-1.3333333,-753.59326,2599.5066)"><g
       id="g10"
       transform="scale(0.1)"><path
         d="m 8337.73,19496.3 c -69.14,-21.6 -139.68,-49.8 -211.91,-89 70.78,-13.7 141.06,-30.1 212.07,-55.1 143.36,-50.4 289.65,-135.3 448.95,-301.2 285.82,-297.9 613.75,-858.1 784.06,-1594.6 170.66,-737.9 183.12,-1651.3 195.39,-2575 0.51,-37.5 31.05,-67.5 68.44,-67.5 0.31,0 0.58,0 0.86,0 37.77,0.5 68,31.6 67.5,69.3 -12.23,919.2 -24.26,1848.8 -198.91,2604.1 -175,756.8 -513.24,1340.2 -818.67,1658.4 -116.41,121.3 -227.93,203.9 -335.71,262.1 v -0.1 c -72.26,39.1 -142.85,67.2 -212.07,88.6 z"
         style="fill:#ffffff;fill-opacity:1;fill-rule:nonzero;stroke:none"
         id="path18" /><path
         d="m 8337.73,19496.3 c -69.14,-21.6 -139.68,-49.8 -211.91,-89 -107.62,-58.4 -218.98,-141.2 -335.16,-262.7 -304.72,-318.9 -641.75,-903 -815.23,-1660.2 -173.09,-755.6 -183.2,-1685.2 -193.52,-2604.4 -0.43,-37.8 29.85,-68.7 67.62,-69.1 0.31,0 0.59,0 0.86,0 37.38,0 67.89,30.1 68.32,67.6 10.35,923.7 20.94,1837.1 190.08,2575.4 168.79,736.8 495.55,1297.7 780.78,1596.1 158.95,166.4 305.08,251.6 448.32,302.2 70.94,25.1 141.17,41.7 211.88,55.6 -72.27,39 -142.82,67.1 -212.04,88.5 z"
         style="fill:#ffffff;fill-opacity:1;fill-rule:nonzero;stroke:none"
         id="path20" /><path
         d="m 9591.6,18637.6 c 631.4,-430.5 1207.3,-830.1 1267.5,-1129.2 54.3,-270.3 -345.9,-493.5 -857.2,-759.5 -33.54,-17.5 -46.55,-58.7 -29.13,-92.3 17.43,-33.5 58.73,-46.5 92.23,-29.1 v 0 c 448.6,233.4 1008.3,509.7 928.2,907.9 -74.3,369.6 -727.1,807.8 -1324.53,1215.2 -31.21,21.3 -73.79,13.2 -95.04,-18 -21.29,-31.2 -13.24,-73.7 17.97,-95 z"
         style="fill:#ffffff;fill-opacity:1;fill-rule:nonzero;stroke:none"
         id="path22" /><path
         d="m 7085.66,18635 c -630.5,-431.8 -1205.66,-832.5 -1265.15,-1131.8 -53.83,-270.4 346.91,-492.8 858.75,-757.8 33.55,-17.3 46.64,-58.6 29.29,-92.1 -17.38,-33.6 -58.63,-46.7 -92.18,-29.3 v -0.1 c -449.1,232.5 -1009.3,507.6 -930.04,906.1 v -0.1 c 73.55,369.8 725.43,809.4 1322.03,1218 31.17,21.3 73.71,13.4 95.08,-17.8 21.33,-31.2 13.36,-73.8 -17.78,-95.1 z"
         style="fill:#ffffff;fill-opacity:1;fill-rule:nonzero;stroke:none"
         id="path24" /><path
         d="m 9367.73,12479.7 v 0 c -61.01,-779.3 -126.28,-1588.4 79.03,-2071.2 v -0.1 c 175.35,-412.35 543.4,-587.42 860.24,-587.07 v -0.04 c 65.4,0.08 129.1,7.62 188.8,22.26 v -0.03 c 349.1,85.54 547.2,408.88 546.3,655.78 -0.9,257.8 -213.3,420.9 -393.9,439.3 -12.2,1.2 -24.3,1.8 -36.3,1.8 v 0 c -169.4,-0.2 -306,-123.2 -416.5,-219.3 -28.5,-24.8 -31.5,-68 -6.7,-96.5 24.8,-28.5 67.9,-31.5 96.5,-6.7 v 0 c 122.3,106.3 218.5,185.6 326.8,185.7 7.4,0 14.8,-0.3 22.4,-1.1 123.5,-12.6 270.3,-127.8 270.9,-303.7 0.7,-186.8 -157.3,-452.7 -442,-522.39 -48.6,-11.92 -101.4,-18.25 -156.5,-18.29 v -0.03 c -268.2,-0.28 -582.66,147.61 -734.14,503.91 -188.91,444.2 -130.86,1210.7 -68.56,2007 2.93,37.6 -25.19,70.6 -62.85,73.5 -37.66,3 -70.59,-25.2 -73.52,-62.8 z"
         style="fill:#ffffff;fill-opacity:1;fill-rule:nonzero;stroke:none"
         id="path26" /><path
         d="m 7322.23,12477.6 v -0.1 c 62.57,-779.1 129.53,-1588 -74.77,-2071.3 -174.49,-412.76 -542.19,-588.58 -859.02,-588.93 -65.39,-0.04 -129.06,7.34 -188.87,21.83 -349.26,84.81 -548.01,407.7 -547.62,654.7 0.35,257.8 212.39,421.3 392.93,440 12.23,1.3 24.34,1.9 36.37,1.9 169.41,0.2 306.21,-122.6 416.91,-218.4 28.56,-24.7 31.68,-67.9 6.96,-96.5 -24.73,-28.5 -67.93,-31.7 -96.49,-6.9 -122.54,106.1 -218.9,185.2 -327.22,185 -7.39,0 -14.85,-0.3 -22.43,-1.1 -123.47,-12.8 -270,-128.4 -270.23,-304.2 -0.31,-186.9 158.2,-452.4 443.09,-521.57 48.59,-11.8 101.32,-18.01 156.48,-17.97 268.2,0.28 582.38,148.84 733.16,505.34 187.93,444.7 128.36,1211.1 64.38,2007.2 -3.01,37.7 25.08,70.6 62.73,73.7 37.62,3 70.63,-25.1 73.64,-62.7 z"
         style="fill:#ffffff;fill-opacity:1;fill-rule:nonzero;stroke:none"
         id="path28" /><path
         d="m 8765.62,12473.8 c -3.51,-2024.7 -8.82,-4081.57 339.26,-4869.07 140.94,-318.79 347.19,-449.42 568.75,-449.18 327.37,0.31 645.07,287.26 765.77,503.51 169.5,303.6 -14.5,502.19 -195.8,603.4 -58.1,32.42 -118.2,56.92 -171.3,74.45 -87.07,28.87 -159.64,40.63 -223.75,40.59 v -0.04 c -98.51,-0.08 -170.66,-28.48 -232.34,-52.34 -35.23,-13.67 -52.73,-53.28 -39.1,-88.48 13.63,-35.23 53.24,-52.73 88.48,-39.1 61.48,23.79 112.5,43.08 183.12,43.16 46.68,0.04 104.61,-8.47 180.59,-33.63 46.8,-15.47 98.6,-36.72 147.6,-64.06 153.9,-85.9 257.4,-212.5 143.1,-417.27 -107.5,-192.65 -387.66,-433.12 -646.52,-433.4 -153.95,-0.15 -318.48,85 -443.48,367.7 -332.89,753.12 -331.13,2767.26 -327.58,4813.56 0.04,37.8 -30.51,68.4 -68.28,68.5 -37.77,0.1 -68.44,-30.5 -68.52,-68.3 z"
         style="fill:#ffffff;fill-opacity:1;fill-rule:nonzero;stroke:none"
         id="path30" /><path
         d="m 7924.34,12473 c 7.69,-2024.8 17.26,-4081.59 -329.22,-4869.8 v -0.04 c -140.28,-319.06 -346.25,-450.11 -567.82,-450.35 -327.38,-0.35 -645.66,285.94 -766.83,501.96 -170.08,303.24 13.48,502.22 194.57,603.78 58.05,32.54 118.16,57.15 171.13,74.81 87.03,29.02 159.61,40.98 223.67,41.02 98.52,0.11 170.75,-28.13 232.5,-51.88 35.24,-13.59 52.82,-53.16 39.26,-88.4 -13.55,-35.27 -53.12,-52.85 -88.4,-39.3 -61.52,23.68 -112.61,42.86 -183.2,42.82 v -0.04 c -46.72,-0.04 -104.61,-8.63 -180.55,-33.99 -46.72,-15.58 -98.55,-36.91 -147.5,-64.33 v -0.04 c -153.71,-86.21 -256.91,-213.01 -142.18,-417.54 107.93,-192.42 388.51,-432.34 647.38,-432.07 153.98,0.16 318.36,85.62 442.73,368.63 331.37,753.79 325.43,2767.96 317.66,4814.26 -0.12,37.7 30.35,68.5 68.16,68.6 37.78,0.2 68.48,-30.4 68.64,-68.1 z"
         style="fill:#ffffff;fill-opacity:1;fill-rule:nonzero;stroke:none"
         id="path32" /><path
         d="m 7923.09,13676.6 c 0.39,-370.2 -299.42,-670.6 -669.57,-671 -370.2,-0.4 -670.63,299.4 -670.98,669.6 -0.39,370.2 299.37,670.6 669.57,671 370.19,0.3 670.62,-299.4 670.98,-669.6 m -136.8,-0.2 c -0.27,294.7 -239.38,533.3 -534.02,533 -294.65,-0.3 -533.25,-239.4 -532.97,-534.1 0.31,-294.6 239.41,-533.2 534.06,-532.9 294.65,0.3 533.24,239.4 532.93,534 z"
         style="fill:#ffffff;fill-opacity:1;fill-rule:nonzero;stroke:none"
         id="path34" /><path
         d="m 10130,13678.8 c 0.4,-370.2 -299.38,-670.6 -669.57,-670.9 -370.2,-0.4 -670.59,299.4 -670.98,669.6 -0.39,370.2 299.42,670.6 669.61,670.9 370.2,0.4 670.64,-299.4 670.94,-669.6 m -136.76,-0.1 c -0.31,294.6 -239.41,533.2 -534.06,532.9 -294.61,-0.3 -533.24,-239.4 -532.93,-534 0.31,-294.6 239.41,-533.3 534.06,-532.9 294.61,0.3 533.24,239.4 532.93,534 z"
         style="fill:#ffffff;fill-opacity:1;fill-rule:nonzero;stroke:none"
         id="path36" /><path
         d="m 9183.4,13716.6 0.58,-31.4 c 6.92,-63.7 33.68,-115.6 80.36,-155.9 46.99,-40.2 103.75,-58.3 170.31,-54.4 63.63,6.9 115.58,33.7 155.86,80.3 12.89,15.1 23.71,31.7 32.46,49.8 l 11.33,28.1 c 6.36,19.3 10.15,39.7 11.25,61 1.52,65.6 -18.36,121.1 -59.73,166.7 -41.33,45.6 -94.69,70.8 -160.08,75.6 -65.54,1.6 -121.09,-18.3 -166.68,-59.6 -45.58,-41.4 -70.82,-94.8 -75.66,-160.2"
         style="fill:#ffffff;fill-opacity:1;fill-rule:nonzero;stroke:none"
         id="path38" /><path
         d="m 7503.98,13714.9 -0.5,-31.4 c -6.76,-63.7 -33.44,-115.7 -80.04,-156 -46.92,-40.4 -103.64,-58.6 -170.2,-54.9 -63.67,6.8 -115.66,33.5 -156.01,80.1 -12.93,15 -23.79,31.6 -32.58,49.7 l -11.37,28 c -6.44,19.4 -10.23,39.7 -11.37,61 -1.68,65.5 18.09,121.1 59.34,166.8 41.25,45.7 94.57,71 159.96,76 65.51,1.7 121.13,-18.1 166.8,-59.4 45.66,-41.2 71.01,-94.5 75.97,-159.9"
         style="fill:#ffffff;fill-opacity:1;fill-rule:nonzero;stroke:none"
         id="path40" /></g></g></svg>
